# xmcd
#
# Track frame offsets:
#	150
#	8271
#	24774
#	39192
#	56369
#	72978
#	85012
#	99248
#	119134
#	134875
#	150896
#
# Disc length: 2290 seconds
#
# Revision: 1
# Processed by: cddbd v1.5.2PL0 Copyright (c) Steve Scherf et al.
# Submitted via: audiograbber 1.83.01
#
DISCID=7708f00b
DTITLE=The Church Sisters - A Night At The Opry
DYEAR=2018
DGENRE=Country
TTITLE0=A Night At The Opry
TTITLE1=House Of Dreams
TTITLE2=The Little I Got
TTITLE3=Growing Up
TTITLE4=Pearly Gates
TTITLE5=Starting Over Again
TTITLE6=I'm Free
TTITLE7=Your Next Lover
TTITLE8=Can't Cage Me In
TTITLE9=Exile From Main Street
TTITLE10=I'm Not OK
EXTD=
EXTT0=
EXTT1=
EXTT2=
EXTT3=
EXTT4=
EXTT5=
EXTT6=
EXTT7=
EXTT8=
EXTT9=
EXTT10=
PLAYORDER=
